# xmcd
# 
# Track frame offsets:
#     150
#     33247
#     59879
#     100842
#     133902
#     155660
#     175540
#     208037
#     236643
#     259256
# 
# Disc length: 3612
# 
# Revision: 8
# Processed by: cddbd v1.5.2PL0 Copyright (c) Steve Scherf et al.
# Submitted via: fre:ac v1.0.31
# 
DISCID=900e1a0a
DTITLE=Bojan Z - Xenophonia
DYEAR=2006
DGENRE=Jazz
TTITLE0=Ulaz
TTITLE1=Zeven
TTITLE2=Wheels
TTITLE3=Biggus D
TTITLE4=Ashes To Ashes
TTITLE5=Pendant Ce Temps Chez Le Général
TTITLE6=Xenos Blues
TTITLE7=The Mohican And The Great Spirit
TTITLE8=CD-Rom
TTITLE9=Izlaz
EXTD=YEAR: 2006
EXTT0=
EXTT1=
EXTT2=
EXTT3=
EXTT4=
EXTT5=
EXTT6=
EXTT7=
EXTT8=
EXTT9=
PLAYORDER=
